<?xml version="1.0" encoding="UTF-8" standalone="no"?>
<!-- Created with Inkscape (http://www.inkscape.org/) -->

<svg
   xmlns:dc="http://purl.org/dc/elements/1.1/"
   xmlns:cc="http://creativecommons.org/ns#"
   xmlns:rdf="http://www.w3.org/1999/02/22-rdf-syntax-ns#"
   xmlns:svg="http://www.w3.org/2000/svg"
   xmlns="http://www.w3.org/2000/svg"
   xmlns:sodipodi="http://sodipodi.sourceforge.net/DTD/sodipodi-0.dtd"
   xmlns:inkscape="http://www.inkscape.org/namespaces/inkscape"
   width="194.953mm"
   height="99.247002mm"
   viewBox="0 0 194.95301 99.247002"
   version="1.1"
   id="svg4605"
   inkscape:version="0.92.4 (5da689c313, 2019-01-14)"
   sodipodi:docname="car.svg">
  <defs
     id="defs4599" />
  <sodipodi:namedview
     id="base"
     pagecolor="#ffffff"
     bordercolor="#666666"
     borderopacity="1.0"
     inkscape:pageopacity="0.0"
     inkscape:pageshadow="2"
     inkscape:zoom="0.98994949"
     inkscape:cx="498.76626"
     inkscape:cy="140.70051"
     inkscape:document-units="mm"
     inkscape:current-layer="layer1"
     showgrid="false"
     inkscape:window-width="1600"
     inkscape:window-height="837"
     inkscape:window-x="-8"
     inkscape:window-y="225"
     inkscape:window-maximized="1"
     scale-x="1" />
  <metadata
     id="metadata4602">
    <rdf:RDF>
      <cc:Work
         rdf:about="">
        <dc:format>image/svg+xml</dc:format>
        <dc:type
           rdf:resource="http://purl.org/dc/dcmitype/StillImage" />
        <dc:title></dc:title>
      </cc:Work>
    </rdf:RDF>
  </metadata>
  <g
     inkscape:label="Layer 1"
     inkscape:groupmode="layer"
     id="layer1"
     transform="translate(0,-197.753)">
    <g
       id="layer101"
       style="fill:#000000;stroke:none"
       transform="matrix(0.02645833,0,0,0.02645833,-38.938199,197.70405)">
      <path
         id="path4629"
         d="m 2491.7225,3734.491 c -84.4014,7.5103 -208.2213,24.6995 -293.2483,16.052 -50.2513,-21.3205 -50.9312,-23.709 -153.8458,-169.2075 -44,-44 -83,-79 -86,-78 -3,0 -36.6284,2.6645 -125.6284,20.6645 -199,40 -213,37 -237,-46 -15,-53 -16,-54 -49,-50 -45,5 -79,-35 -75,-87 3,-33 9,-39 78,-77 l 75,-41 6,-209 c 7,-230 21,-312 64,-369 26,-33 106,-75 143,-75 12,0 41,-26 75,-67 57,-69 218,-230 317,-316 134,-117 417,-318 625,-444 532,-322 1279,-656 2011,-899 43,-14 83,-30 87,-34 20,-18 -149,-54 -333,-72 -150,-14 -156,-18 -147,-96 6,-52 31,-89 78,-117 27,-16 52,-20 119,-20 77,0 92,3 161,36 56,27 100,59 166,121 93,89 141,114 192,103 35,-7 55,-28 76,-78 23,-55 19,-77 -27,-163 -84,-160 -155,-235 -271,-289 -195,-90 -431,-93 -723,-10 -403,115 -788,459 -1167,1044 -44,68 -75,92 -62,50 27,-95 208,-393 354,-583 92,-121 300,-333 396,-404 132,-99 422,-219 703,-293 95,-25 144,-32 262,-36 138,-5 356,7 485,27 33,5 120,16 194,25 259,31 620,101 645,126 20,18 -9,24 -117,21 -111,-2 -338,-26 -592,-61 -140,-20 -185,-15 -185,20 0,10 10,24 23,30 29,16 167,149 167,162 0,5 29,70 64,143 72,149 85,160 166,149 39,-5 159,-31 305,-66 75,-17 350,-59 495,-74 181,-19 283,-19 433,0 276,34 482,106 591,206 30,27 58,49 64,49 5,0 51,14 103,31 335,110 648,278 831,447 80,73 90,77 196,81 68,2 147,37 197,87 40,41 45,50 45,91 0,75 -20,171 -44,205 -68,101 -226,115 -301,26 -29,-34 -49,-100 -40,-131 13,-44 34,-83 59,-106 45,-43 76,-1 40,55 -36,54 -13,146 40,160 32,8 112,-32 141,-71 14,-17 28,-52 31,-77 6,-42 4,-48 -31,-87 -21,-23 -54,-49 -74,-57 -34,-15 -96,-15 -132,0 -17,7 -88,-37 -282,-177 -308,-222 -431,-280 -618,-291 -119,-7 -124,-3 -132,105 -9,123 -58,192 -177,248 -108,51 -224,28 -314,-62 -96,-97 -117,-215 -59,-339 70,-150 172,-189 321,-123 36,17 52,30 52,43 0,17 -9,20 -74,24 -157,10 -214,72 -201,217 10,104 25,138 72,158 81,33 227,-3 274,-68 22,-32 24,-43 24,-164 0,-128 0,-131 -30,-174 -34,-51 -92,-88 -197,-126 -258,-94 -509,-111 -833,-56 -330,56 -814,165 -1055,237 -1864,560 -3151,1269 -3464,1909 -88,180 -120,262 -132,335 -6,36 -3,43 25,69 30,28 32,33 25,78 -10,71 -28,108 -63,129 -17,10 -31,21 -31,25 0,4 14,19 30,33 62,51 157,56 236,12 l 39,-22 6,-149 c 6,-156 19,-229 70,-395 80,-255 184,-445 292,-534 77,-63 150,-90 252,-94 117,-5 177,16 218,74 39,55 55,152 38,227 -16,75 -38,92 -116,93 -149,2 -233,97 -300,337 -28,99 -44,117 -66,76 -19,-37 7,-202 44,-272 67,-127 178,-207 302,-215 67,-4 85,-18 85,-66 0,-58 -70,-137 -142,-162 -79,-27 -243,68 -340,196 -111,147 -205,454 -210,686 -4,182 109,394 210,394 38,0 133,-34 187,-68 86,-52 161,-142 219,-258 35,-71 88,-222 100,-284 15,-72 25,-87 84,-113 142,-63 822,-296 1407,-482 132,-42 276,-88 320,-102 175,-56 178,-60 226,-258 19,-79 115,-376 139,-430 12,-27 90,-275 90,-286 0,-11 -23,-6 -155,33 -170,51 -214,64 -400,126 -314,104 -478,152 -517,152 -26,0 -22,-17 7,-36 33,-22 366,-134 645,-218 124,-37 236,-71 250,-76 14,-5 84,-27 157,-50 106,-33 148,-52 220,-99 208,-138 341,-201 522,-247 112,-28 113,-28 177,-9 69,20 128,73 163,148 48,103 54,154 41,360 -12,206 -26,297 -45,297 -13,0 -35,-78 -35,-121 0,-41 -32,-129 -50,-139 -47,-25 -185,2 -263,52 -134,86 -236,284 -307,596 -19,81 -43,132 -57,119 -6,-7 16,-211 32,-297 21,-112 83,-292 121,-352 77,-120 202,-212 322,-237 29,-6 94,-11 144,-11 h 91 l -6,-62 c -7,-78 -25,-115 -81,-166 -51,-47 -93,-70 -159,-88 -121,-32 -339,85 -465,248 -187,244 -310,629 -342,1074 -11,163 -2,212 57,301 59,89 150,142 282,163 138,23 222,-2 309,-91 102,-104 225,-318 317,-549 20,-52 41,-104 45,-115 5,-11 13,-33 17,-50 11,-34 18,-36 178,-60 178,-27 248,-35 475,-50 588,-40 909,3 1298,174 159,70 462,250 462,274 0,7 -86,8 -234,3 -129,-4 -299,-4 -379,0 l -145,7 -5,44 c -8,74 -60,165 -130,228 -102,91 -277,164 -393,165 -116,0 -237,-126 -281,-296 -30,-111 -25,-109 -331,-108 -154,1 -268,6 -283,12 -15,6 -79,71 -142,145 -134,154 -214,231 -266,253 -20,9 -70,24 -111,34 -238,59 -505,48 -611,-26 -47,-33 -119,-129 -145,-194 -9,-25 -18,-46 -19,-48 -4,-5 -310,77 -365,98 -106,41 -127,58 -134,104 -8,50 -52,148 -98,213 -75,110 -257,258 -346,283 -100,27 -189,-1 -252,-81 -34,-43 -80,-154 -80,-193 0,-8 -11,-27 -24,-43 -33,-38 -73,-36 -231,15 -71,23 -186,57 -254,77 -68,19 -132,42 -141,50 -10,9 -27,42 -39,73 -12,31 -43,107 -68,167 -25,61 -52,127 -61,148 -18,44 -102,131 -152,158 -51.6653,31.9919 -129.536,87.3468 -318.2775,103.491"
         inkscape:connector-curvature="0"
         sodipodi:nodetypes="ccccccccccccsccccccscsccccccccccccccccccscsccccccsccccsccccccccccccscccccsccccscccccccccsccccccccccccccscccscccccccssccsccsccccccsscccccccsccccccsccccccccsccccccccscccccccccccsccccscccc" />
      <path
         id="path4653"
         d="M 8620,2179 C 8481,2054 8188,1892 7950,1807 7621,1689 7177,1620 6833,1633 l -143,5 v -30 c 0,-45 15,-65 67,-85 42,-16 80,-18 323,-18 264,0 281,1 415,29 174,36 361,97 539,176 75,33 143,60 151,60 8,0 19,-17 26,-40 17,-56 -6,-110 -81,-189 -33,-35 -60,-67 -60,-72 0,-39 144,59 185,125 28,46 30,56 30,143 0,51 2,93 5,93 3,0 45,26 94,59 162,107 296,246 296,305 0,14 -3,26 -7,26 -5,-1 -28,-19 -53,-41 z"
         inkscape:connector-curvature="0" />
    </g>
  </g>
</svg>
