<?xml version="1.0" encoding="UTF-8" standalone="no"?>
<!-- Created with Inkscape (http://www.inkscape.org/) -->

<svg
   xmlns:dc="http://purl.org/dc/elements/1.1/"
   xmlns:cc="http://creativecommons.org/ns#"
   xmlns:rdf="http://www.w3.org/1999/02/22-rdf-syntax-ns#"
   xmlns:svg="http://www.w3.org/2000/svg"
   xmlns="http://www.w3.org/2000/svg"
   xmlns:sodipodi="http://sodipodi.sourceforge.net/DTD/sodipodi-0.dtd"
   xmlns:inkscape="http://www.inkscape.org/namespaces/inkscape"
   width="992"
   height="503"
   viewBox="0 0 262.46666 133.08542"
   version="1.1"
   id="svg8"
   inkscape:version="0.92.4 (5da689c313, 2019-01-14)"
   sodipodi:docname="Carpool2School.svg">
  <title
     id="title870">Carpool2School Logo</title>
  <defs
     id="defs2" />
  <sodipodi:namedview
     id="base"
     pagecolor="#ffffff"
     bordercolor="#666666"
     borderopacity="1.0"
     inkscape:pageopacity="0"
     inkscape:pageshadow="2"
     inkscape:zoom="0.8318484"
     inkscape:cx="619.87104"
     inkscape:cy="244.37105"
     inkscape:document-units="mm"
     inkscape:current-layer="layer2"
     showgrid="false"
     inkscape:snap-grids="true"
     inkscape:snap-to-guides="true"
     units="px"
     inkscape:pagecheckerboard="false"
     inkscape:window-width="1680"
     inkscape:window-height="987"
     inkscape:window-x="1592"
     inkscape:window-y="-8"
     inkscape:window-maximized="1"
     inkscape:object-paths="false">
    <inkscape:grid
       type="xygrid"
       id="grid4765" />
  </sodipodi:namedview>
  <metadata
     id="metadata5">
    <rdf:RDF>
      <cc:Work
         rdf:about="">
        <dc:format>image/svg+xml</dc:format>
        <dc:type
           rdf:resource="http://purl.org/dc/dcmitype/StillImage" />
        <dc:title>Carpool2School Logo</dc:title>
        <dc:date>28.01.2020</dc:date>
        <dc:creator>
          <cc:Agent>
            <dc:title>Mathis Mensing</dc:title>
          </cc:Agent>
        </dc:creator>
      </cc:Work>
    </rdf:RDF>
  </metadata>
  <g
     inkscape:label="Layer 1"
     inkscape:groupmode="layer"
     id="layer1"
     transform="translate(0,-163.91457)">
    <path
       style="fill:none;fill-opacity:1;stroke-width:0.26769042;stroke-miterlimit:4;stroke-dasharray:none"
       d="m 251.6772,279.45177 c -2.82058,-6.18447 -8.04694,-11.54225 -14.97072,-15.34714 -19.8096,-10.88617 -54.20815,-13.54945 -104.50238,-8.091 -33.202634,3.6035 -74.188508,11.25565 -114.621116,21.4 -5.565314,1.39632 -10.1666295,2.49088 -10.2251465,2.43236 -0.05852,-0.0585 2.0293591,-1.13488 4.6397265,-2.39192 24.439196,-11.76882 64.068292,-21.58008 110.852106,-27.44445 46.20411,-5.7917 87.91351,-6.65606 109.04596,-2.25979 13.81964,2.87495 21.17634,7.53989 23.54998,14.93324 1.24974,3.89265 1.16123,10.70726 -0.19323,14.87703 -0.525,1.61626 -1.97207,4.23548 -2.33713,4.23028 -0.0949,-0.001 -0.65205,-1.05373 -1.23805,-2.33861 z"
       id="path4586"
       inkscape:connector-curvature="0" />
    <g
       id="g4696"
       transform="matrix(0.02645833,0,0,0.02645833,130.13389,17.870432)">
      <g
         id="layer101"
         style="fill:#000000;stroke:none"
         transform="translate(-5114.2864,5628.5721)">
        <path
           id="path4629"
           d="m 2491.7225,3734.491 c -84.4014,7.5103 -208.2213,24.6995 -293.2483,16.052 -50.2513,-21.3205 -50.9312,-23.709 -153.8458,-169.2075 -44,-44 -83,-79 -86,-78 -3,0 -36.6284,2.6645 -125.6284,20.6645 -199,40 -213,37 -237,-46 -15,-53 -16,-54 -49,-50 -45,5 -79,-35 -75,-87 3,-33 9,-39 78,-77 l 75,-41 6,-209 c 7,-230 21,-312 64,-369 26,-33 106,-75 143,-75 12,0 41,-26 75,-67 57,-69 218,-230 317,-316 134,-117 417,-318 625,-444 532,-322 1279,-656 2011,-899 43,-14 83,-30 87,-34 20,-18 -149,-54 -333,-72 -150,-14 -156,-18 -147,-96 6,-52 31,-89 78,-117 27,-16 52,-20 119,-20 77,0 92,3 161,36 56,27 100,59 166,121 93,89 141,114 192,103 35,-7 55,-28 76,-78 23,-55 19,-77 -27,-163 -84,-160 -155,-235 -271,-289 -195,-90 -431,-93 -723,-10 -403,115 -788,459 -1167,1044 -44,68 -75,92 -62,50 27,-95 208,-393 354,-583 92,-121 300,-333 396,-404 132,-99 422,-219 703,-293 95,-25 144,-32 262,-36 138,-5 356,7 485,27 33,5 120,16 194,25 259,31 620,101 645,126 20,18 -9,24 -117,21 -111,-2 -338,-26 -592,-61 -140,-20 -185,-15 -185,20 0,10 10,24 23,30 29,16 167,149 167,162 0,5 29,70 64,143 72,149 85,160 166,149 39,-5 159,-31 305,-66 75,-17 350,-59 495,-74 181,-19 283,-19 433,0 276,34 482,106 591,206 30,27 58,49 64,49 5,0 51,14 103,31 335,110 648,278 831,447 80,73 90,77 196,81 68,2 147,37 197,87 40,41 45,50 45,91 0,75 -20,171 -44,205 -68,101 -226,115 -301,26 -29,-34 -49,-100 -40,-131 13,-44 34,-83 59,-106 45,-43 76,-1 40,55 -36,54 -13,146 40,160 32,8 112,-32 141,-71 14,-17 28,-52 31,-77 6,-42 4,-48 -31,-87 -21,-23 -54,-49 -74,-57 -34,-15 -96,-15 -132,0 -17,7 -88,-37 -282,-177 -308,-222 -431,-280 -618,-291 -119,-7 -124,-3 -132,105 -9,123 -58,192 -177,248 -108,51 -224,28 -314,-62 -96,-97 -117,-215 -59,-339 70,-150 172,-189 321,-123 36,17 52,30 52,43 0,17 -9,20 -74,24 -157,10 -214,72 -201,217 10,104 25,138 72,158 81,33 227,-3 274,-68 22,-32 24,-43 24,-164 0,-128 0,-131 -30,-174 -34,-51 -92,-88 -197,-126 -258,-94 -509,-111 -833,-56 -330,56 -814,165 -1055,237 -1864,560 -3151,1269 -3464,1909 -88,180 -120,262 -132,335 -6,36 -3,43 25,69 30,28 32,33 25,78 -10,71 -28,108 -63,129 -17,10 -31,21 -31,25 0,4 14,19 30,33 62,51 157,56 236,12 l 39,-22 6,-149 c 6,-156 19,-229 70,-395 80,-255 184,-445 292,-534 77,-63 150,-90 252,-94 117,-5 177,16 218,74 39,55 55,152 38,227 -16,75 -38,92 -116,93 -149,2 -233,97 -300,337 -28,99 -44,117 -66,76 -19,-37 7,-202 44,-272 67,-127 178,-207 302,-215 67,-4 85,-18 85,-66 0,-58 -70,-137 -142,-162 -79,-27 -243,68 -340,196 -111,147 -205,454 -210,686 -4,182 109,394 210,394 38,0 133,-34 187,-68 86,-52 161,-142 219,-258 35,-71 88,-222 100,-284 15,-72 25,-87 84,-113 142,-63 822,-296 1407,-482 132,-42 276,-88 320,-102 175,-56 178,-60 226,-258 19,-79 115,-376 139,-430 12,-27 90,-275 90,-286 0,-11 -23,-6 -155,33 -170,51 -214,64 -400,126 -314,104 -478,152 -517,152 -26,0 -22,-17 7,-36 33,-22 366,-134 645,-218 124,-37 236,-71 250,-76 14,-5 84,-27 157,-50 106,-33 148,-52 220,-99 208,-138 341,-201 522,-247 112,-28 113,-28 177,-9 69,20 128,73 163,148 48,103 54,154 41,360 -12,206 -26,297 -45,297 -13,0 -35,-78 -35,-121 0,-41 -32,-129 -50,-139 -47,-25 -185,2 -263,52 -134,86 -236,284 -307,596 -19,81 -43,132 -57,119 -6,-7 16,-211 32,-297 21,-112 83,-292 121,-352 77,-120 202,-212 322,-237 29,-6 94,-11 144,-11 h 91 l -6,-62 c -7,-78 -25,-115 -81,-166 -51,-47 -93,-70 -159,-88 -121,-32 -339,85 -465,248 -187,244 -310,629 -342,1074 -11,163 -2,212 57,301 59,89 150,142 282,163 138,23 222,-2 309,-91 102,-104 225,-318 317,-549 20,-52 41,-104 45,-115 5,-11 13,-33 17,-50 11,-34 18,-36 178,-60 178,-27 248,-35 475,-50 588,-40 909,3 1298,174 159,70 462,250 462,274 0,7 -86,8 -234,3 -129,-4 -299,-4 -379,0 l -145,7 -5,44 c -8,74 -60,165 -130,228 -102,91 -277,164 -393,165 -116,0 -237,-126 -281,-296 -30,-111 -25,-109 -331,-108 -154,1 -268,6 -283,12 -15,6 -79,71 -142,145 -134,154 -214,231 -266,253 -20,9 -70,24 -111,34 -238,59 -505,48 -611,-26 -47,-33 -119,-129 -145,-194 -9,-25 -18,-46 -19,-48 -4,-5 -310,77 -365,98 -106,41 -127,58 -134,104 -8,50 -52,148 -98,213 -75,110 -257,258 -346,283 -100,27 -189,-1 -252,-81 -34,-43 -80,-154 -80,-193 0,-8 -11,-27 -24,-43 -33,-38 -73,-36 -231,15 -71,23 -186,57 -254,77 -68,19 -132,42 -141,50 -10,9 -27,42 -39,73 -12,31 -43,107 -68,167 -25,61 -52,127 -61,148 -18,44 -102,131 -152,158 -51.6653,31.9919 -129.536,87.3468 -318.2775,103.491"
           inkscape:connector-curvature="0"
           sodipodi:nodetypes="ccccccccccccsccccccscsccccccccccccccccccscsccccccsccccsccccccccccccscccccsccccscccccccccsccccccccccccccscccscccccccssccsccsccccccsscccccccsccccccsccccccccsccccccccscccccccccccsccccscccc" />
        <path
           id="path4653"
           d="M 8620,2179 C 8481,2054 8188,1892 7950,1807 7621,1689 7177,1620 6833,1633 l -143,5 v -30 c 0,-45 15,-65 67,-85 42,-16 80,-18 323,-18 264,0 281,1 415,29 174,36 361,97 539,176 75,33 143,60 151,60 8,0 19,-17 26,-40 17,-56 -6,-110 -81,-189 -33,-35 -60,-67 -60,-72 0,-39 144,59 185,125 28,46 30,56 30,143 0,51 2,93 5,93 3,0 45,26 94,59 162,107 296,246 296,305 0,14 -3,26 -7,26 -5,-1 -28,-19 -53,-41 z"
           inkscape:connector-curvature="0" />
      </g>
      <g
         id="layer102"
         style="fill:#944e11;stroke:none" />
      <g
         id="layer103"
         style="fill:#c06417;stroke:none" />
      <g
         id="layer104"
         style="fill:#f6821f;stroke:none" />
    </g>
  </g>
  <g
     inkscape:groupmode="layer"
     id="layer2"
     inkscape:label="Layer 2">
    <path
       style="fill:#f6821f;fill-opacity:1;stroke:#f6821f;stroke-width:0.37857139;stroke-miterlimit:4;stroke-dasharray:none;stroke-opacity:1"
       d="m 250.66113,118.60842 c -6.62863,-14.61913 -25.08417,-22.934533 -56.72975,-25.560448 -6.97893,-0.579101 -28.68623,-0.581395 -37.79762,-0.004 -39.3346,2.492695 -86.985856,10.508178 -138.462574,23.290988 -5.576824,1.38485 -10.21387,2.44372 -10.304548,2.35304 -0.2788357,-0.27883 8.772475,-4.399 15.152564,-6.89747 33.732443,-13.209741 84.874878,-22.662916 144.575868,-26.723437 9.48958,-0.645424 44.05785,-0.653158 49.89286,-0.01116 17.45831,1.920854 27.23013,4.931322 32.82731,10.113317 4.35941,4.036046 5.55589,7.44035 5.24443,14.92181 -0.2073,4.97934 -0.80456,7.42678 -2.38718,9.78219 l -0.85851,1.27772 z"
       id="path4602"
       inkscape:connector-curvature="0" />
    <text
       xml:space="preserve"
       style="font-style:normal;font-weight:normal;font-size:10.58333302px;line-height:1.25;font-family:sans-serif;letter-spacing:0px;word-spacing:0px;fill:#000000;fill-opacity:1;stroke:none;stroke-width:0.26458332"
       x="94.494049"
       y="122.88006"
       id="text4769"><tspan
         sodipodi:role="line"
         id="tspan4767"
         x="94.494049"
         y="132.53555"
         style="stroke-width:0.26458332" /></text>
    <g
       aria-label="CARPOOL2SCHOOL"
       transform="translate(0,4.2333335)"
       style="font-style:normal;font-variant:normal;font-weight:normal;font-stretch:normal;font-size:10.58333302px;line-height:1.25;font-family:'CHEESE PIZZA';-inkscape-font-specification:'CHEESE PIZZA, Normal';font-variant-ligatures:normal;font-variant-caps:normal;font-variant-numeric:normal;font-feature-settings:normal;text-align:start;letter-spacing:0px;word-spacing:0px;writing-mode:lr-tb;text-anchor:start;fill:#000000;fill-opacity:1;stroke:none;stroke-width:0.26458332"
       id="text830">
      <path
         d="m 51.45585,120.35469 q 0.100973,0.46325 0.07256,1.12802 -0.02841,0.66477 -0.06998,0.95112 -0.147616,1.07203 -0.606197,1.83056 -0.425491,0.75132 -1.015163,1.22646 -0.589671,0.47515 -1.296009,0.73309 -0.699126,0.29103 -1.394011,0.44249 -0.926513,0.20195 -1.896301,0.20535 -0.969788,0.003 -1.938307,-0.30541 -0.928217,-0.28295 -1.829289,-0.91843 -0.875195,-0.67579 -1.645611,-1.82501 -0.511207,-0.75512 -0.86715,-1.75206 -0.330065,-1.03723 -0.510374,-1.86448 -0.382256,-1.75375 -0.276646,-3.33655 0.105611,-1.58281 0.702059,-2.82199 0.622326,-1.27948 1.783004,-2.15638 1.160678,-0.8769 2.848256,-1.24473 0.595616,-0.12982 1.312138,-0.18201 0.716523,-0.0522 1.443229,0.10137 0.719495,0.12047 1.397419,0.5273 0.711013,0.39961 1.295612,1.17339 0.266422,0.4272 0.506967,0.8947 0.273634,0.46028 0.35297,0.82427 0.07212,0.3309 -0.01696,0.55828 -0.0963,0.1943 -0.273199,0.33685 -0.143811,0.13533 -0.368227,0.2189 -0.198539,0.0433 -0.397077,0.0866 -0.562527,0.12261 -1.035968,0.0178 -0.473441,-0.10477 -1.105554,-0.93753 -0.332602,-0.41277 -0.974464,-0.65414 -0.649074,-0.27447 -1.093666,-0.24689 -0.106482,-0.0115 -0.271931,0.0246 -0.132359,0.0289 -0.198538,0.0433 -0.727975,0.15868 -1.277345,0.6597 -0.516279,0.49381 -0.849713,1.1904 -0.307557,0.65629 -0.446693,1.44917 -0.113258,0.75259 -0.05385,1.5022 0.02461,0.27193 0.09249,0.7424 0.09376,0.43016 0.108186,0.49634 0.129823,0.59562 0.340249,1.24299 0.243517,0.64016 0.612181,1.21838 0.368663,0.57822 0.895563,1.08728 0.519687,0.47598 1.209064,0.77633 0.388597,0.19259 0.847613,0.23119 0.492106,0.0314 0.856094,-0.048 0.661795,-0.14425 1.270132,-0.69279 0.634214,-0.58884 0.796255,-1.59469 0.08611,-0.40004 0.0615,-0.67198 0.0013,-0.31223 0.226953,-0.70804 0.207019,-0.32241 0.530704,-0.42763 0.316473,-0.1383 0.614281,-0.20321 0.496347,-0.10819 0.929486,-0.0293 0.459016,0.0386 0.603264,0.7004 z"
         style="font-style:normal;font-variant:normal;font-weight:normal;font-stretch:normal;font-size:33.86666489px;font-family:'CHEESE PIZZA';-inkscape-font-specification:'CHEESE PIZZA, Normal';font-variant-ligatures:normal;font-variant-caps:normal;font-variant-numeric:normal;font-feature-settings:normal;text-align:center;writing-mode:lr-tb;text-anchor:middle;stroke-width:0.26458332"
         id="path841" />
      <path
         d="m 66.736939,121.46285 q 0.068,0.33177 -0.06389,0.53165 -0.09871,0.19309 -0.317349,0.30704 -0.21864,0.11395 -0.450879,0.16155 -0.232239,0.0476 -0.431302,0.0884 -0.265416,0.0544 -0.630363,0.1292 -0.33177,0.068 -0.664362,-0.0367 -0.259438,-0.0851 -0.439744,-0.29015 -0.173506,-0.17187 -0.320635,-0.38371 -0.113952,-0.21864 -0.227904,-0.43728 -0.08078,-0.22544 -0.181127,-0.37772 -0.147129,-0.21184 -0.347834,-0.51641 -0.200705,-0.30458 -0.540097,-0.44244 -0.11313,-0.046 -0.438922,-0.11747 -0.292615,-0.0783 -0.524854,-0.0307 l -2.952756,0.60517 q -0.06635,0.0136 -0.09273,0.0536 -0.02638,0.04 -0.09273,0.0536 -0.450879,0.16155 -0.661897,0.48136 -0.217819,0.28664 -0.308907,0.68558 -0.06471,0.35897 -0.08945,0.74432 -0.02473,0.38534 -0.09624,0.71114 -0.01958,0.0731 -0.104688,0.33259 -0.05193,0.25264 -0.283351,0.47292 -0.231418,0.22028 -0.596366,0.29508 -0.32497,0.10117 -0.623563,0.16237 -0.165886,0.034 -0.431302,0.0884 -0.232239,0.0476 -0.478078,0.0289 -0.212661,-0.0256 -0.412545,-0.15745 -0.199883,-0.13188 -0.26788,-0.46365 -0.0204,-0.0995 0.05627,-0.73752 0.06987,-0.67116 0.172091,-1.52181 0.102224,-0.85064 0.204448,-1.70129 0.102223,-0.85065 0.179712,-1.31595 0.07069,-0.49847 0.133758,-1.20281 0.09625,-0.71114 0.172913,-1.34912 0.07667,-0.63799 0.178892,-1.48863 0.102224,-0.85065 0.224025,-1.77445 0.121801,-0.9238 0.210426,-1.8408 0.115001,-0.95698 0.237624,-1.70809 0.01196,-0.27902 0.130244,-0.54526 0.236574,-0.53247 0.760607,-0.67444 0.524033,-0.14198 0.855803,-0.20997 0.796249,-0.1632 1.188395,-0.10528 0.392146,0.0579 0.652405,0.3157 0.26026,0.2578 0.494963,0.72825 0.234704,0.47046 0.68969,1.17234 0.147129,0.21184 0.475385,0.8014 0.321457,0.55639 0.743266,1.26506 0.421809,0.70868 0.857217,1.48371 0.428609,0.74185 0.796842,1.35779 0.214304,0.37093 0.596137,1.05322 0.415009,0.6755 0.897194,1.51008 0.515362,0.82778 1.051123,1.7551 0.535761,0.92731 1.017946,1.7619 0.04678,0.0596 0.06038,0.1259 0.0204,0.0995 0.034,0.16589 z m -6.393582,-5.05062 q -0.0408,-0.19906 -0.215126,-0.54361 -0.181127,-0.37773 -0.395432,-0.74865 -0.221104,-0.40411 -0.421809,-0.70868 -0.207505,-0.33775 -0.301057,-0.45686 -0.413367,-0.33012 -0.678783,-0.27573 -0.232239,0.0476 -0.383704,0.32064 -0.158264,0.23986 -0.190619,0.41934 -0.01278,0.10634 -0.07749,0.4653 -0.03833,0.319 -0.09624,0.71114 -0.02473,0.38535 -0.04947,0.7707 -0.02473,0.38534 0.02286,0.61758 0.135994,0.66354 0.574917,0.78101 0.465299,0.0775 1.029309,-0.0381 0.464478,-0.0952 0.894958,-0.35627 0.423681,-0.29426 0.287687,-0.9578 z"
         style="font-style:normal;font-variant:normal;font-weight:normal;font-stretch:normal;font-size:33.86666489px;font-family:'CHEESE PIZZA';-inkscape-font-specification:'CHEESE PIZZA, Normal';font-variant-ligatures:normal;font-variant-caps:normal;font-variant-numeric:normal;font-feature-settings:normal;text-align:center;writing-mode:lr-tb;text-anchor:middle;stroke-width:0.26458332"
         id="path843" />
      <path
         d="m 79.515971,119.18174 q 0.05098,0.26609 -0.123094,0.43738 -0.140816,0.16491 -0.400536,0.24915 -0.220085,0.11114 -0.486178,0.16212 -0.266093,0.051 -0.432401,0.0829 -0.365878,0.0701 -0.731756,0.14021 -0.332616,0.0637 -0.657463,-0.012 -0.245577,-0.0219 -0.483385,-0.18324 -0.07927,-0.0538 -0.198173,-0.13445 -0.08564,-0.087 -0.164912,-0.14081 -0.769384,-0.95603 -1.578403,-1.93895 -0.78213,-1.02256 -1.657672,-1.99273 -0.07927,-0.0538 -0.204546,-0.16771 -0.13165,-0.14719 -0.310704,-0.18184 -0.350339,-0.20874 -0.816001,-0.11952 -0.266093,0.051 -0.566845,0.28102 -0.307124,0.19678 -0.298567,0.78135 -0.02052,0.0729 -0.03466,0.17905 -0.01414,0.10616 -0.0014,0.17268 l 0.694658,3.62552 q 0.01275,0.0665 -0.01554,0.27884 0.01135,0.2392 -0.06932,0.35811 -0.202363,0.3836 -0.561868,0.48696 -0.326243,0.097 -0.692121,0.1671 -0.266093,0.051 -0.571821,0.0751 -0.299354,0.0573 -0.597313,-0.058 -0.185427,-0.0679 -0.37583,-0.34178 -0.150769,-0.24698 -0.176261,-0.38002 L 65.40368,107.43743 q -0.0701,-0.36587 0.171894,-0.72258 0.268886,-0.39635 0.674399,-0.43957 l 4.856197,-0.93046 q 2.746572,-0.4228 4.16565,0.68461 1.445966,1.06778 1.841092,3.13 0.242175,1.26394 0.04977,2.05943 -0.198783,0.76222 -0.5087,1.30436 -0.283029,0.5025 -0.551915,0.89885 -0.268886,0.39635 -0.173291,0.89527 0.01275,0.0665 0.08424,0.25972 0.0715,0.1932 0.169888,0.34676 0.236412,0.33401 0.604473,0.81521 0.39495,0.44157 0.809019,0.98292 0.440957,0.50172 0.888288,1.0367 0.44733,0.53498 0.848653,1.00981 0.07927,0.0538 0.104761,0.18682 0.06513,0.15994 0.07787,0.22646 z m -5.662698,-9.39776 q -0.114714,-0.59871 -0.457283,-0.94686 -0.348942,-0.38142 -0.859216,-0.52503 -0.483386,-0.18324 -1.067952,-0.17469 -0.557678,-0.0311 -1.123126,0.0773 -0.631971,0.12108 -0.926349,0.38438 -0.261116,0.25693 -0.336806,0.58178 -0.07569,0.32484 -0.03248,0.73036 0.0701,0.36587 0.14658,0.76501 0.08922,0.46567 0.165698,0.86481 0.103365,0.3595 0.293768,0.63336 0.223666,0.26749 0.554885,0.37644 0.364482,0.10258 0.996452,-0.0185 0.59871,-0.11472 1.365124,-0.43398 0.793302,-0.35889 1.125132,-1.14661 0.169101,-0.37723 0.191013,-0.62281 0.01554,-0.27883 -0.03544,-0.54493 z"
         style="font-style:normal;font-variant:normal;font-weight:normal;font-stretch:normal;font-size:33.86666489px;font-family:'CHEESE PIZZA';-inkscape-font-specification:'CHEESE PIZZA, Normal';font-variant-ligatures:normal;font-variant-caps:normal;font-variant-numeric:normal;font-feature-settings:normal;text-align:center;writing-mode:lr-tb;text-anchor:middle;stroke-width:0.26458332"
         id="path845" />
      <path
         d="m 90.052124,106.9747 q 0.136647,0.76685 0.07919,1.60269 -0.02412,0.82991 -0.372075,1.57991 -0.347956,0.75001 -1.031633,1.35344 -0.683677,0.60342 -1.832804,0.91139 -0.260791,0.0809 -0.554923,0.16768 -0.266732,0.0475 -0.527522,0.1284 l -1.427742,0.28882 q -0.06668,0.0119 -0.160766,0.063 -0.09408,0.0512 -0.227449,0.0749 -0.494181,0.12246 -0.650335,0.59749 -0.156155,0.47503 -0.102684,0.7751 l 0.623826,3.50086 q 0.01188,0.0667 -0.01915,0.27861 0.0082,0.23933 -0.07395,0.35718 -0.20732,0.38094 -0.568135,0.47964 -0.360815,0.0987 -0.694229,0.1581 -0.266732,0.0475 -0.572746,0.0677 -0.300074,0.0535 -0.596511,-0.0657 -0.184531,-0.0703 -0.371368,-0.34663 -0.147554,-0.24891 -0.171319,-0.38227 L 78.37578,104.96172 q -0.06535,-0.36676 0.181249,-0.7203 0.274002,-0.39283 0.680041,-0.43078 l 4.634463,-0.82583 q 0.306015,-0.0201 0.645371,-0.0462 0.339355,-0.0261 0.578687,-0.0343 1.229998,-0.0472 2.080029,0.28295 0.877431,0.29085 1.463035,0.8745 0.579663,0.55032 0.922301,1.31486 0.342638,0.76455 0.491168,1.59809 z m -3.234122,0.57629 q -0.124765,-0.70017 -0.535416,-1.07419 -0.38325,-0.41331 -0.891619,-0.56353 -0.51431,-0.18355 -1.098938,-0.18258 -0.551287,-0.005 -0.984726,0.0723 -0.633488,0.11288 -0.931255,0.37234 -0.270367,0.22018 -0.350263,0.54401 -0.07989,0.32384 -0.036,0.76322 0.07129,0.4001 0.154471,0.86688 0.08912,0.50012 0.160412,0.90022 0.104636,0.39416 0.291473,0.67047 0.220178,0.27036 0.549957,0.3836 0.363121,0.10729 0.996608,-0.006 0.333415,-0.0594 0.760913,-0.16999 0.421556,-0.14392 0.797889,-0.34858 0.370392,-0.238 0.656277,-0.56414 0.313285,-0.36543 0.430157,-0.86786 0.03698,-0.17859 0.04061,-0.35123 0.03104,-0.21194 -0.01055,-0.44533 z"
         style="font-style:normal;font-variant:normal;font-weight:normal;font-stretch:normal;font-size:33.86666489px;font-family:'CHEESE PIZZA';-inkscape-font-specification:'CHEESE PIZZA, Normal';font-variant-ligatures:normal;font-variant-caps:normal;font-variant-numeric:normal;font-feature-settings:normal;text-align:center;writing-mode:lr-tb;text-anchor:middle;stroke-width:0.26458332"
         id="path847" />
      <path
         d="m 106.10671,107.26692 q 0.29177,1.80538 0.0668,3.3855 -0.22492,1.58012 -0.95471,2.79586 -0.70176,1.1769 -1.94722,1.96138 -1.20663,0.81251 -2.91171,1.08807 -0.668655,0.10806 -1.492656,0.10401 -0.824002,-0.004 -1.430183,-0.14624 -0.572747,-0.14758 -1.267406,-0.41268 -0.661226,-0.27051 -1.332244,-0.81388 -0.709854,-0.5714 -1.201887,-1.28092 -0.492033,-0.70952 -0.816902,-1.44606 -0.330271,-0.76997 -0.521408,-1.52812 -0.196541,-0.79159 -0.310006,-1.49368 -0.29717,-1.8388 -0.06685,-3.38549 0.22492,-1.58013 0.960112,-2.76243 0.729789,-1.21574 1.941818,-1.99482 1.245463,-0.78448 2.917107,-1.05463 0.735523,-0.11887 1.526092,-0.10941 0.823999,0.004 1.724659,0.27017 1.33427,0.40188 2.24911,1.1803 0.91484,0.77841 1.51697,1.74459 0.59672,0.93275 0.90335,1.98099 0.30123,1.0148 0.44711,1.91749 z m -3.24839,0.49067 q -0.10266,-0.63523 -0.41571,-1.5109 -0.31845,-0.9091 -0.88816,-1.67468 -0.5697,-0.76559 -1.39708,-1.21508 -0.832776,-0.48292 -1.969494,-0.29921 -1.136718,0.1837 -1.774985,0.90436 -0.643671,0.68723 -0.943221,1.59329 -0.29955,0.90606 -0.315427,1.8692 -0.02128,0.9297 0.08678,1.59836 0.09185,0.56836 0.31102,1.28767 0.213763,0.68588 0.594691,1.34475 0.380929,0.65886 0.951648,1.21845 0.565316,0.52614 1.360273,0.77504 0.433614,0.13576 0.812182,0.14319 0.378567,0.007 0.64603,-0.0358 1.136722,-0.18371 1.780392,-0.87094 0.63826,-0.72066 0.93781,-1.62672 0.29955,-0.90606 0.31543,-1.8692 0.0159,-0.96313 -0.0922,-1.63179 z"
         style="font-style:normal;font-variant:normal;font-weight:normal;font-stretch:normal;font-size:33.86666489px;font-family:'CHEESE PIZZA';-inkscape-font-specification:'CHEESE PIZZA, Normal';font-variant-ligatures:normal;font-variant-caps:normal;font-variant-numeric:normal;font-feature-settings:normal;text-align:center;writing-mode:lr-tb;text-anchor:middle;stroke-width:0.26458332"
         id="path849" />
      <path
         d="m 121.76304,105.04764 q 0.25397,1.81108 -0.004,3.38616 -0.25789,1.57508 -1.01293,2.7753 -0.7262,1.16197 -1.98779,1.92026 -1.22334,0.78711 -2.9338,1.02698 -0.67077,0.0941 -1.49451,0.0728 -0.82374,-0.0213 -1.42682,-0.1761 -0.56953,-0.15951 -1.2585,-0.43908 -0.65543,-0.28426 -1.31494,-0.84154 -0.69776,-0.58611 -1.17486,-1.30576 -0.4771,-0.71965 -0.7865,-1.46282 -0.31411,-0.7767 -0.48936,-1.53868 -0.17995,-0.79552 -0.27872,-1.49983 -0.25868,-1.84461 0.004,-3.38615 0.25789,-1.57508 1.01763,-2.74176 0.75504,-1.200219 1.98309,-1.953799 1.26158,-0.758283 2.93851,-0.993443 0.73784,-0.103471 1.52804,-0.07749 0.82374,0.02128 1.71864,0.306158 1.32558,0.429675 2.22395,1.22704 0.89838,0.797365 1.48018,1.775915 0.57709,0.94502 0.86175,1.99943 0.27995,1.02088 0.40694,1.92642 z m -3.25794,0.42268 q -0.0894,-0.63723 -0.38404,-1.51926 -0.29938,-0.91556 -0.85296,-1.69288 -0.55358,-0.77732 -1.37138,-1.244 -0.82251,-0.50023 -1.96282,-0.34032 -1.14031,0.15991 -1.79349,0.86708 -0.6579,0.67362 -0.97632,1.57323 -0.31842,0.8996 -0.35442,1.86219 -0.0407,0.92906 0.0534,1.59983 0.08,0.57015 0.28404,1.29389 0.19938,0.6902 0.56646,1.35688 0.36707,0.66668 0.92597,1.23807 0.5542,0.53785 1.34378,0.8033 0.43068,0.14479 0.80901,0.16014 0.37833,0.0153 0.64664,-0.0223 1.14031,-0.15991 1.7982,-0.83353 0.65319,-0.70717 0.97161,-1.60677 0.31842,-0.8996 0.35442,-1.8622 0.036,-0.96259 -0.0581,-1.63336 z"
         style="font-style:normal;font-variant:normal;font-weight:normal;font-stretch:normal;font-size:33.86666489px;font-family:'CHEESE PIZZA';-inkscape-font-specification:'CHEESE PIZZA, Normal';font-variant-ligatures:normal;font-variant-caps:normal;font-variant-numeric:normal;font-feature-settings:normal;text-align:center;writing-mode:lr-tb;text-anchor:middle;stroke-width:0.26458332"
         id="path851" />
      <path
         d="m 133.99985,110.18068 q 0.0199,0.16815 0.0102,0.37393 0.0239,0.20179 -0.10047,0.59165 -0.081,0.1801 -0.37173,0.31683 -0.25313,0.16638 -0.38765,0.18231 l -7.93711,0.93965 q -0.0673,0.008 -0.27701,-0.0354 -0.20976,-0.0434 -0.35225,-0.0947 -0.17612,-0.0474 -0.34648,-0.33411 -0.13275,-0.25711 -0.15266,-0.42527 l -1.62449,-13.721775 q -0.008,-0.06726 0.006,-0.239404 0.0434,-0.209754 0.12436,-0.389858 0.22924,-0.368171 0.59919,-0.411969 0.36596,-0.07743 0.73591,-0.121227 0.26906,-0.03185 0.57573,-0.03406 0.33631,-0.03982 0.65891,0.09251 0.1801,0.08099 0.31285,0.338097 0.16638,0.253128 0.18231,0.387655 l 1.27411,10.762178 q 0.008,0.0673 0.0535,0.16418 0.0456,0.0969 0.0535,0.16417 0.0894,0.46687 0.55844,0.68416 0.46509,0.18366 0.8014,0.14385 l 4.4394,-0.52558 q 0.0673,-0.008 0.27702,0.0354 0.20577,0.01 0.35224,0.0947 0.29295,0.16993 0.40003,0.49829 0.10708,0.32835 0.13495,0.56378 z"
         style="font-style:normal;font-variant:normal;font-weight:normal;font-stretch:normal;font-size:33.86666489px;font-family:'CHEESE PIZZA';-inkscape-font-specification:'CHEESE PIZZA, Normal';font-variant-ligatures:normal;font-variant-caps:normal;font-variant-numeric:normal;font-feature-settings:normal;text-align:center;writing-mode:lr-tb;text-anchor:middle;stroke-width:0.26458332"
         id="path853" />
      <path
         d="m 145.35096,109.03246 q 0.01,0.10113 0.002,0.37407 0.026,0.26968 -0.1101,0.62302 -0.0849,0.1783 -0.34484,0.30541 -0.2567,0.16082 -0.39154,0.17381 l -8.02312,0.77288 q -0.0674,0.007 -0.27618,-0.0414 -0.20551,-0.0142 -0.3501,-0.10237 -0.32613,-0.20674 -0.42927,-0.57107 -0.0662,-0.33385 -0.0857,-0.53612 -0.039,-0.40452 -0.017,-0.88297 0.0524,-0.5154 0.47241,-1.10023 0.56581,-0.83705 1.28394,-1.85888 0.71813,-1.02184 1.31765,-1.86213 0.23721,-0.36309 0.68766,-0.98488 0.48417,-0.62504 0.92488,-1.34796 0.44071,-0.72292 0.74982,-1.39915 0.30587,-0.709929 0.25716,-1.215589 -0.0714,-0.741633 -0.64978,-1.094202 -0.54463,-0.355816 -1.15142,-0.297363 -0.40453,0.03897 -0.86024,0.252986 -0.422,0.210769 -0.70715,0.782613 -0.39725,0.820808 -0.78554,1.028325 -0.39154,0.17382 -0.86349,0.21928 -0.37082,0.0357 -0.82205,-0.0569 -0.45447,-0.12634 -0.51617,-0.766843 -0.0292,-0.303396 0.0394,-0.650244 0.0687,-0.346848 0.14381,-0.626275 0.25592,-0.87524 0.74658,-1.432858 0.52437,-0.560865 1.10518,-0.889003 0.61452,-0.331386 1.24853,-0.460507 0.63076,-0.162833 1.17013,-0.214792 0.91019,-0.08768 1.77568,0.06711 0.89596,0.117832 1.58193,0.528079 0.71967,0.407001 1.16843,1.180334 0.48246,0.770086 0.59288,1.916246 0.0162,0.168554 0.0292,0.303396 0.013,0.134842 0.026,0.269685 0.013,0.134842 -0.004,0.306643 -0.0175,0.1718 -0.0557,0.48169 -0.0479,0.20876 -0.18077,0.59581 -0.0991,0.38381 -0.23845,0.70344 -0.13932,0.31963 -0.37004,0.75014 -0.23396,0.3968 -0.43746,0.75663 -0.23721,0.36309 -0.59628,0.87401 -0.36231,0.4772 -0.62024,0.97838 -0.20675,0.32613 -0.48092,0.65875 -0.24045,0.32937 -0.48091,0.65875 -0.21,0.29242 -0.34932,0.61205 -0.14258,0.28592 -0.1166,0.5556 0.0195,0.20227 0.17057,0.35783 0.14783,0.12185 0.32612,0.20675 0.17505,0.0512 0.34685,0.0687 0.1718,0.0175 0.23922,0.011 l 2.79798,-0.26954 q 0.0674,-0.006 0.24247,0.0447 0.20551,0.0142 0.38381,0.0991 0.29242,0.21 0.3586,0.54386 0.0999,0.33061 0.12588,0.60029 z"
         style="font-style:normal;font-variant:normal;font-weight:normal;font-stretch:normal;font-size:33.86666489px;font-family:'CHEESE PIZZA';-inkscape-font-specification:'CHEESE PIZZA, Normal';font-variant-ligatures:normal;font-variant-caps:normal;font-variant-numeric:normal;font-feature-settings:normal;text-align:center;writing-mode:lr-tb;text-anchor:middle;stroke-width:0.26458332"
         id="path855" />
      <path
         d="m 158.23948,104.93103 q 0.0934,1.38539 -0.34974,2.36566 -0.40931,0.978 -1.15005,1.57101 -0.73846,0.6268 -1.77001,0.93392 -0.99777,0.30484 -2.04526,0.37542 -0.70959,0.0478 -1.56117,0.003 -0.85158,-0.0444 -1.68531,-0.3277 -0.79994,-0.28553 -1.51901,-0.882 -0.71678,-0.56268 -1.15906,-1.58513 -0.079,-0.16439 -0.15793,-0.32879 -0.0474,-0.20046 -0.12869,-0.39865 -0.0812,-0.19818 -0.13553,-0.50002 -0.0543,-0.30183 -0.0588,-0.36941 -0.025,-0.37169 0.13024,-0.58582 0.15529,-0.21412 0.38727,-0.29764 0.22969,-0.11731 0.46622,-0.13325 0.26805,-0.052 0.437,-0.0634 0.40548,-0.0273 0.67808,-0.0117 0.27259,0.0156 0.48672,0.17087 0.24564,0.11922 0.43736,0.44573 0.22323,0.29045 0.49619,0.81515 0.18944,0.29273 0.68983,0.66633 0.50038,0.37361 0.88118,0.48372 0.10365,0.027 0.20729,0.0539 0.13744,0.0247 0.27488,0.0494 0.17122,0.0224 0.37624,0.0425 0.20274,-0.0137 0.27032,-0.0182 0.27032,-0.0182 0.63746,-0.11084 0.36486,-0.12642 0.69137,-0.31814 0.35803,-0.22779 0.57407,-0.54783 0.24983,-0.32233 0.22023,-0.7616 -0.025,-0.37169 -0.32042,-0.72517 -0.26157,-0.35575 -0.82043,-0.58964 -0.80449,-0.35311 -1.7058,-0.63181 -0.8698,-0.31476 -1.7396,-0.62953 -0.87207,-0.34856 -1.61126,-0.74001 -0.73919,-0.39146 -1.21945,-0.97008 -0.5186,-0.64392 -0.69702,-1.27682 -0.1807,-0.666695 -0.22169,-1.274916 -0.0865,-1.284021 0.32734,-2.194439 0.41386,-0.910419 1.12081,-1.501152 0.73846,-0.626801 1.66864,-0.927085 0.92791,-0.334075 1.90782,-0.400107 0.57443,-0.03871 1.25706,0.01712 0.68263,0.05583 1.37665,0.280612 0.69402,0.224782 1.30032,0.659134 0.6401,0.432075 1.12947,1.145856 0.26385,0.389541 0.43316,0.887284 0.16704,0.463953 0.18753,0.768063 0.025,0.371691 -0.13024,0.585816 -0.15756,0.180334 -0.38726,0.297643 -0.19819,0.08124 -0.46851,0.09946 -0.23653,0.01594 -0.40548,0.02732 -0.0676,0.0046 -0.36941,0.05884 -0.27032,0.01822 -0.51141,-0.03342 -0.10364,-0.02696 -0.34701,-0.112391 -0.24563,-0.119221 -0.4328,-0.378157 -0.0721,-0.06303 -0.14654,-0.159842 -0.0406,-0.09909 -0.11276,-0.16212 -0.41951,-0.684544 -1.04594,-0.913879 -0.62872,-0.263125 -1.13557,-0.228971 -0.27032,0.01822 -0.60139,0.142355 -0.33334,0.09035 -0.62379,0.313583 -0.29273,0.189442 -0.47725,0.473424 -0.18453,0.283982 -0.1572,0.689463 0.0387,0.57443 0.43317,0.887284 0.39218,0.279064 1.08847,0.537635 0.55658,0.200099 1.32045,0.454112 0.76388,0.25402 1.45789,0.4788 2.251,0.66296 3.10104,1.69187 0.85003,1.02891 0.95705,2.61705 z"
         style="font-style:normal;font-variant:normal;font-weight:normal;font-stretch:normal;font-size:33.86666489px;font-family:'CHEESE PIZZA';-inkscape-font-specification:'CHEESE PIZZA, Normal';font-variant-ligatures:normal;font-variant-caps:normal;font-variant-numeric:normal;font-feature-settings:normal;text-align:center;writing-mode:lr-tb;text-anchor:middle;stroke-width:0.26458332"
         id="path857" />
      <path
         d="m 172.36475,104.12965 q 0.0124,0.47398 -0.14017,1.12163 -0.15251,0.64766 -0.24702,0.92115 -0.34594,1.02536 -0.93857,1.68449 -0.55877,0.65825 -1.22706,1.01444 -0.66828,0.3562 -1.41044,0.47717 -0.74129,0.15483 -1.45225,0.17336 -0.94794,0.0247 -1.90118,-0.15373 -0.95324,-0.17843 -1.84671,-0.66332 -0.85873,-0.45191 -1.62471,-1.24503 -0.73302,-0.82785 -1.27437,-2.10111 -0.36061,-0.83756 -0.52338,-1.88354 -0.12979,-1.08072 -0.15185,-1.9271 -0.0468,-1.794324 0.35366,-3.329275 0.40042,-1.534952 1.21856,-2.640373 0.85113,-1.140159 2.1556,-1.783958 1.30447,-0.6438 3.03108,-0.688794 0.6094,-0.01588 1.323,0.06716 0.71361,0.08304 1.39865,0.370091 0.68416,0.253197 1.27381,0.779881 0.62351,0.525803 1.05271,1.395451 0.18163,0.469561 0.33028,0.97386 0.18251,0.503416 0.19222,0.875823 0.009,0.338552 -0.12131,0.545212 -0.13101,0.172805 -0.33149,0.279663 -0.16663,0.105977 -0.40273,0.146008 -0.20313,0.0053 -0.40627,0.01059 -0.57553,0.015 -1.02094,-0.176665 -0.44541,-0.191662 -0.91023,-1.128138 -0.24934,-0.467796 -0.83458,-0.825206 -0.58613,-0.391264 -1.02801,-0.447505 -0.10245,-0.03121 -0.27172,-0.0268 -0.13542,0.0035 -0.20314,0.0053 -0.74481,0.01941 -1.37835,0.408578 -0.59969,0.388287 -1.05778,1.010031 -0.42512,0.587007 -0.71041,1.339761 -0.25232,0.718016 -0.33447,1.465473 -0.0268,0.27173 -0.0483,0.74658 0.0115,0.44012 0.0132,0.50783 0.0159,0.60939 0.10123,1.28473 0.11922,0.67446 0.37296,1.31153 0.25375,0.63707 0.67589,1.23588 0.42126,0.56495 1.04213,0.98919 0.34561,0.26202 0.78925,0.38597 0.4775,0.12307 0.84991,0.11336 0.6771,-0.0176 1.37748,-0.44243 0.73334,-0.45953 1.08104,-1.41717 0.15958,-0.37682 0.18637,-0.64855 0.0598,-0.30646 0.35565,-0.65295 0.26378,-0.2779 0.60145,-0.32058 0.33679,-0.0765 0.64148,-0.0845 0.50783,-0.0132 0.91851,0.14546 0.44364,0.12395 0.46129,0.80105 z"
         style="font-style:normal;font-variant:normal;font-weight:normal;font-stretch:normal;font-size:33.86666489px;font-family:'CHEESE PIZZA';-inkscape-font-specification:'CHEESE PIZZA, Normal';font-variant-ligatures:normal;font-variant-caps:normal;font-variant-numeric:normal;font-feature-settings:normal;text-align:center;writing-mode:lr-tb;text-anchor:middle;stroke-width:0.26458332"
         id="path859" />
      <path
         d="m 186.19497,108.3979 q -0.002,0.0677 -0.0745,0.26915 -0.0737,0.2353 -0.17777,0.33432 -0.27934,0.33177 -0.6526,0.35628 -0.33941,0.0254 -0.71183,0.016 -0.27085,-0.007 -0.5747,-0.0483 -0.30471,-0.008 -0.57131,-0.18371 -0.16673,-0.10582 -0.29452,-0.41392 -0.0948,-0.27339 -0.0914,-0.40882 l 0.11547,-4.60442 q 0.002,-0.0677 -0.0296,-0.17012 -0.0313,-0.10242 -0.0296,-0.17013 -0.0211,-0.50869 -0.48916,-0.75757 -0.43418,-0.24803 -0.73889,-0.25567 l -3.48717,-0.0875 q -0.0677,-0.002 -0.17013,0.0296 -0.0686,0.0322 -0.17013,0.0296 -0.47483,0.022 -0.75672,0.4553 -0.24803,0.43419 -0.25652,0.77275 l -0.11547,4.60442 q -0.002,0.0677 -0.0745,0.26915 -0.0398,0.23614 -0.14391,0.33516 -0.27934,0.33177 -0.65261,0.35629 -0.33941,0.0254 -0.71182,0.016 -0.27085,-0.007 -0.57471,-0.0483 -0.3047,-0.008 -0.5713,-0.18371 -0.16674,-0.10581 -0.29452,-0.41391 -0.0948,-0.2734 -0.0914,-0.40882 l 0.34726,-13.847116 q 0.002,-0.06771 0.0406,-0.269999 0.0728,-0.201438 0.17778,-0.334315 0.27933,-0.331768 0.65175,-0.322429 0.37327,-0.02452 0.71183,-0.01603 0.23699,0.0059 0.54084,0.04744 0.33856,0.0085 0.63902,0.185411 0.16674,0.105814 0.26151,0.379209 0.0948,0.273395 0.0914,0.408819 l -0.10019,3.995011 q -0.002,0.06771 0.0296,0.170129 0.0652,0.103266 0.0635,0.170978 -0.0119,0.473984 0.4223,0.722014 0.46804,0.248879 0.77275,0.25652 l 3.48717,0.08745 q 0.0677,0.0017 0.17012,-0.02961 0.10242,-0.03131 0.17013,-0.02961 0.50784,0.01274 0.75672,-0.455305 0.24888,-0.468041 0.25567,-0.73889 l 0.10019,-3.99501 q 0.002,-0.06771 0.0406,-0.269999 0.0728,-0.201438 0.17777,-0.334315 0.27934,-0.331768 0.65175,-0.322429 0.37327,-0.02452 0.71183,-0.01603 0.23699,0.0059 0.54085,0.04744 0.33856,0.0085 0.63902,0.185411 0.16673,0.105814 0.2615,0.379209 0.12864,0.274244 0.12524,0.409668 z"
         style="font-style:normal;font-variant:normal;font-weight:normal;font-stretch:normal;font-size:33.86666489px;font-family:'CHEESE PIZZA';-inkscape-font-specification:'CHEESE PIZZA, Normal';font-variant-ligatures:normal;font-variant-caps:normal;font-variant-numeric:normal;font-feature-settings:normal;text-align:center;writing-mode:lr-tb;text-anchor:middle;stroke-width:0.26458332"
         id="path861" />
      <path
         d="m 202.38347,102.80153 q -0.1628,1.82154 -0.77072,3.29728 -0.60792,1.47574 -1.61517,2.47377 -0.9705,0.96731 -2.37104,1.42016 -1.36982,0.4896 -3.09017,0.33584 -0.67464,-0.0603 -1.47215,-0.26758 -0.79752,-0.20729 -1.34986,-0.49467 -0.51861,-0.28436 -1.12636,-0.7127 -0.57401,-0.42532 -1.09018,-1.11749 -0.54688,-0.72891 -0.84859,-1.53791 -0.30171,-0.80901 -0.43477,-1.60294 -0.13003,-0.82766 -0.12815,-1.60953 0.005,-0.8156 0.0682,-1.52398 0.16582,-1.855269 0.77073,-3.297278 0.60792,-1.47574 1.61215,-2.440037 1.00724,-0.998028 2.37405,-1.453895 1.40054,-0.452852 3.08715,-0.302108 0.74211,0.06633 1.50589,0.270599 0.79752,0.207286 1.60464,0.687445 1.19383,0.71873 1.88827,1.698842 0.69443,0.980112 1.03949,2.065003 0.34807,1.05116 0.38653,2.142649 0.0415,1.05776 -0.0399,1.96853 z m -3.26901,-0.32618 q 0.0573,-0.64091 -0.03,-1.56675 -0.0842,-0.95958 -0.44739,-1.842078 -0.36315,-0.882499 -1.05401,-1.522274 -0.68784,-0.673507 -1.83473,-0.776013 -1.1469,-0.102506 -1.94327,0.438346 -0.79336,0.50712 -1.30725,1.311231 -0.5139,0.804112 -0.76697,1.733538 -0.25007,0.8957 -0.31036,1.57034 -0.0513,0.57345 -0.0164,1.3246 0.0379,0.71742 0.24443,1.44992 0.20655,0.73249 0.62151,1.41561 0.41799,0.64939 1.12693,1.08677 0.3867,0.23857 0.75172,0.3392 0.36503,0.10063 0.63489,0.12475 1.14689,0.10251 1.94025,-0.40461 0.79638,-0.54086 1.31027,-1.34497 0.51389,-0.80411 0.76697,-1.73354 0.25308,-0.92942 0.31337,-1.60407 z"
         style="font-style:normal;font-variant:normal;font-weight:normal;font-stretch:normal;font-size:33.86666489px;font-family:'CHEESE PIZZA';-inkscape-font-specification:'CHEESE PIZZA, Normal';font-variant-ligatures:normal;font-variant-caps:normal;font-variant-numeric:normal;font-feature-settings:normal;text-align:center;writing-mode:lr-tb;text-anchor:middle;stroke-width:0.26458332"
         id="path863" />
      <path
         d="m 218.42458,105.60239 q -0.33233,1.79835 -1.07551,3.21082 -0.74318,1.41247 -1.83929,2.31199 -1.05665,0.87238 -2.49339,1.19235 -1.40958,0.35944 -3.10802,0.0456 -0.66606,-0.12308 -1.44071,-0.404 -0.77465,-0.28091 -1.29772,-0.61865 -0.48976,-0.33159 -1.05482,-0.81485 -0.53175,-0.47711 -0.98097,-1.21448 -0.47637,-0.77683 -0.70115,-1.61049 -0.22478,-0.83367 -0.28305,-1.63656 -0.0521,-0.83619 0.0228,-1.61446 0.0811,-0.81158 0.21033,-1.51093 0.33848,-1.83166 1.07551,-3.210822 0.74318,-1.412467 1.83314,-2.278689 1.09611,-0.899525 2.49954,-1.225657 1.43673,-0.319978 3.10187,-0.01227 0.73266,0.135394 1.47401,0.410152 0.77465,0.280913 1.53337,0.834403 1.12143,0.827157 1.72123,1.86788 0.5998,1.040719 0.84195,2.153119 0.24831,1.07909 0.18459,2.16939 -0.0576,1.05701 -0.22374,1.95618 z m -3.22421,-0.63026 q 0.11693,-0.63276 0.11658,-1.5627 0.006,-0.96325 -0.27328,-1.87583 -0.27908,-0.91257 -0.90712,-1.614114 -0.62188,-0.734843 -1.75418,-0.944088 -1.13229,-0.209244 -1.97573,0.254813 -0.83729,0.430754 -1.42408,1.183319 -0.58679,0.75256 -0.92562,1.65427 -0.33268,0.86841 -0.45577,1.53446 -0.10462,0.56615 -0.1401,1.31727 -0.0293,0.71783 0.10785,1.46642 0.13718,0.74859 0.48649,1.4675 0.35546,0.68561 1.02043,1.18734 0.36271,0.27366 0.71673,0.40797 0.35402,0.1343 0.62044,0.18353 1.1323,0.20925 1.96958,-0.22151 0.84344,-0.46405 1.43023,-1.21662 0.58679,-0.75256 0.92563,-1.65427 0.33883,-0.90171 0.46192,-1.56776 z"
         style="font-style:normal;font-variant:normal;font-weight:normal;font-stretch:normal;font-size:33.86666489px;font-family:'CHEESE PIZZA';-inkscape-font-specification:'CHEESE PIZZA, Normal';font-variant-ligatures:normal;font-variant-caps:normal;font-variant-numeric:normal;font-feature-settings:normal;text-align:center;writing-mode:lr-tb;text-anchor:middle;stroke-width:0.26458332"
         id="path865" />
      <path
         d="m 228.15025,115.3583 q -0.0499,0.16182 -0.14208,0.34604 -0.0599,0.19419 -0.33139,0.50033 -0.14696,0.1319 -0.46816,0.13922 -0.29882,0.0497 -0.42828,0.01 l -7.63804,-2.35389 q -0.0647,-0.0199 -0.23897,-0.14452 -0.17424,-0.12457 -0.28375,-0.2292 -0.14188,-0.1146 -0.18157,-0.44578 -0.0173,-0.28883 0.0326,-0.45066 l 4.06943,-13.20476 q 0.0199,-0.06473 0.10219,-0.216578 0.12457,-0.17424 0.27154,-0.306141 0.35865,-0.243853 0.71466,-0.134138 0.36599,0.07735 0.722,0.187066 0.25892,0.07979 0.54022,0.201924 0.32365,0.09974 0.56506,0.351331 0.1319,0.146965 0.1492,0.435806 0.0497,0.29881 0.01,0.42827 l -3.19171,10.35668 q -0.02,0.0647 -0.0175,0.17179 0.002,0.10707 -0.0175,0.1718 -0.10728,0.46308 0.23367,0.85166 0.35092,0.35622 0.67457,0.45596 l 4.27213,1.31658 q 0.0647,0.02 0.23897,0.14452 0.18421,0.0922 0.28375,0.2292 0.19907,0.27398 0.16406,0.61757 -0.035,0.3436 -0.10483,0.57015 z"
         style="font-style:normal;font-variant:normal;font-weight:normal;font-stretch:normal;font-size:33.86666489px;font-family:'CHEESE PIZZA';-inkscape-font-specification:'CHEESE PIZZA, Normal';font-variant-ligatures:normal;font-variant-caps:normal;font-variant-numeric:normal;font-feature-settings:normal;text-align:center;writing-mode:lr-tb;text-anchor:middle;stroke-width:0.26458332"
         id="path867" />
    </g>
    <path
       style="fill:none;stroke:none;stroke-width:0.26458332px;stroke-linecap:butt;stroke-linejoin:miter;stroke-opacity:1"
       d="m 7.4768415,134.22649 c 0,0 100.6243485,-26.54103 165.6362485,-26.54103 65.01191,0 78.70089,21.32274 78.70089,28.81144"
       id="path832"
       inkscape:connector-curvature="0" />
  </g>
</svg>
